<svg width="117" height="18" viewBox="0 0 117 18" fill="none" xmlns="http://www.w3.org/2000/svg">
<path d="M12.288 0.515991V3.22799H7.824V17.268H4.464V3.22799H0V0.515991H12.288Z" fill="black"/>
<path d="M27.3396 10.332C27.3396 10.812 27.3076 11.244 27.2436 11.628H17.5236C17.6036 12.588 17.9396 13.34 18.5316 13.884C19.1236 14.428 19.8516 14.7 20.7156 14.7C21.9636 14.7 22.8516 14.164 23.3796 13.092H27.0036C26.6196 14.372 25.8836 15.428 24.7956 16.26C23.7076 17.076 22.3716 17.484 20.7876 17.484C19.5076 17.484 18.3556 17.204 17.3316 16.644C16.3236 16.068 15.5316 15.26 14.9556 14.22C14.3956 13.18 14.1156 11.98 14.1156 10.62C14.1156 9.24399 14.3956 8.03599 14.9556 6.99599C15.5156 5.95599 16.2996 5.15599 17.3076 4.59599C18.3156 4.03599 19.4756 3.75599 20.7876 3.75599C22.0516 3.75599 23.1796 4.02799 24.1716 4.57199C25.1796 5.11599 25.9556 5.89199 26.4996 6.89999C27.0596 7.89199 27.3396 9.03599 27.3396 10.332ZM23.8596 9.37199C23.8436 8.50799 23.5316 7.81999 22.9236 7.30799C22.3156 6.77999 21.5716 6.51599 20.6916 6.51599C19.8596 6.51599 19.1556 6.77199 18.5796 7.28399C18.0196 7.77999 17.6756 8.47599 17.5476 9.37199H23.8596Z" fill="black"/>
<path d="M35.1201 17.484C34.0321 17.484 33.0561 17.292 32.1921 16.908C31.3281 16.508 30.6401 15.972 30.1281 15.3C29.6321 14.628 29.3601 13.884 29.3121 13.068H32.6961C32.7601 13.58 33.0081 14.004 33.4401 14.34C33.8881 14.676 34.4401 14.844 35.0961 14.844C35.7361 14.844 36.2321 14.716 36.5841 14.46C36.9521 14.204 37.1361 13.876 37.1361 13.476C37.1361 13.044 36.9121 12.724 36.4641 12.516C36.0321 12.292 35.3361 12.052 34.3761 11.796C33.3841 11.556 32.5681 11.308 31.9281 11.052C31.3041 10.796 30.7601 10.404 30.2961 9.87599C29.8481 9.34799 29.6241 8.63599 29.6241 7.73999C29.6241 7.00399 29.8321 6.33199 30.2481 5.72399C30.6801 5.11599 31.2881 4.63599 32.0721 4.28399C32.8721 3.93199 33.8081 3.75599 34.8801 3.75599C36.4641 3.75599 37.7281 4.15599 38.6721 4.95599C39.6161 5.73999 40.1361 6.80399 40.2321 8.14799H37.0161C36.9681 7.61999 36.7441 7.20399 36.3441 6.89999C35.9601 6.57999 35.4401 6.41999 34.7841 6.41999C34.1761 6.41999 33.7041 6.53199 33.3681 6.75599C33.0481 6.97999 32.8881 7.29199 32.8881 7.69199C32.8881 8.13999 33.1121 8.48399 33.5601 8.72399C34.0081 8.94799 34.7041 9.17999 35.6481 9.41999C36.6081 9.65999 37.4001 9.90799 38.0241 10.164C38.6481 10.42 39.1841 10.82 39.6321 11.364C40.0961 11.892 40.3361 12.596 40.3521 13.476C40.3521 14.244 40.1361 14.932 39.7041 15.54C39.2881 16.148 38.6801 16.628 37.8801 16.98C37.0961 17.316 36.1761 17.484 35.1201 17.484Z" fill="black"/>
<path d="M47.2622 6.73199V13.164C47.2622 13.612 47.3662 13.94 47.5742 14.148C47.7982 14.34 48.1662 14.436 48.6782 14.436H50.2382V17.268H48.1262C45.2942 17.268 43.8782 15.892 43.8782 13.14V6.73199H42.2942V3.97199H43.8782V0.68399H47.2622V3.97199H50.2382V6.73199H47.2622Z" fill="black"/>
<path d="M69.4069 3.77999C71.0389 3.77999 72.3509 4.28399 73.3429 5.29199C74.3509 6.28399 74.8549 7.67599 74.8549 9.46799V17.268H71.4949V9.92399C71.4949 8.88399 71.2309 8.09199 70.7029 7.54799C70.1749 6.98799 69.4549 6.70799 68.5429 6.70799C67.6309 6.70799 66.9029 6.98799 66.3589 7.54799C65.8309 8.09199 65.5669 8.88399 65.5669 9.92399V17.268H62.2069V9.92399C62.2069 8.88399 61.9429 8.09199 61.4149 7.54799C60.8869 6.98799 60.1669 6.70799 59.2549 6.70799C58.3269 6.70799 57.5909 6.98799 57.0469 7.54799C56.5189 8.09199 56.2549 8.88399 56.2549 9.92399V17.268H52.8949V3.97199H56.2549V5.57999C56.6869 5.01999 57.2389 4.57999 57.9109 4.25999C58.5989 3.93999 59.3509 3.77999 60.1669 3.77999C61.2069 3.77999 62.1349 4.00399 62.9509 4.45199C63.7669 4.88399 64.3989 5.50799 64.8469 6.32399C65.2789 5.55599 65.9029 4.93999 66.7189 4.47599C67.5509 4.01199 68.4469 3.77999 69.4069 3.77999Z" fill="black"/>
<path d="M77.4193 10.572C77.4193 9.22799 77.6833 8.03599 78.2113 6.99599C78.7553 5.95599 79.4833 5.15599 80.3953 4.59599C81.3233 4.03599 82.3553 3.75599 83.4913 3.75599C84.4833 3.75599 85.3473 3.95599 86.0833 4.35599C86.8353 4.75599 87.4353 5.25999 87.8833 5.86799V3.97199H91.2673V17.268H87.8833V15.324C87.4513 15.948 86.8513 16.468 86.0833 16.884C85.3313 17.284 84.4593 17.484 83.4673 17.484C82.3473 17.484 81.3233 17.196 80.3953 16.62C79.4833 16.044 78.7553 15.236 78.2113 14.196C77.6833 13.14 77.4193 11.932 77.4193 10.572ZM87.8833 10.62C87.8833 9.80399 87.7233 9.10799 87.4033 8.53199C87.0833 7.93999 86.6513 7.49199 86.1073 7.18799C85.5633 6.86799 84.9793 6.70799 84.3553 6.70799C83.7313 6.70799 83.1553 6.85999 82.6273 7.16399C82.0993 7.46799 81.6673 7.91599 81.3313 8.50799C81.0113 9.08399 80.8513 9.77199 80.8513 10.572C80.8513 11.372 81.0113 12.076 81.3313 12.684C81.6673 13.276 82.0993 13.732 82.6273 14.052C83.1713 14.372 83.7473 14.532 84.3553 14.532C84.9793 14.532 85.5633 14.38 86.1073 14.076C86.6513 13.756 87.0833 13.308 87.4033 12.732C87.7233 12.14 87.8833 11.436 87.8833 10.62Z" fill="black"/>
<path d="M98.7009 6.73199V13.164C98.7009 13.612 98.8049 13.94 99.0129 14.148C99.2369 14.34 99.6049 14.436 100.117 14.436H101.677V17.268H99.5649C96.7329 17.268 95.3169 15.892 95.3169 13.14V6.73199H93.7329V3.97199H95.3169V0.68399H98.7009V3.97199H101.677V6.73199H98.7009Z" fill="black"/>
<path d="M116.694 10.332C116.694 10.812 116.662 11.244 116.598 11.628H106.878C106.958 12.588 107.294 13.34 107.886 13.884C108.478 14.428 109.206 14.7 110.07 14.7C111.318 14.7 112.206 14.164 112.734 13.092H116.358C115.974 14.372 115.238 15.428 114.15 16.26C113.062 17.076 111.726 17.484 110.142 17.484C108.862 17.484 107.71 17.204 106.686 16.644C105.678 16.068 104.886 15.26 104.31 14.22C103.75 13.18 103.47 11.98 103.47 10.62C103.47 9.24399 103.75 8.03599 104.31 6.99599C104.87 5.95599 105.654 5.15599 106.662 4.59599C107.67 4.03599 108.83 3.75599 110.142 3.75599C111.406 3.75599 112.534 4.02799 113.526 4.57199C114.534 5.11599 115.31 5.89199 115.854 6.89999C116.414 7.89199 116.694 9.03599 116.694 10.332ZM113.214 9.37199C113.198 8.50799 112.886 7.81999 112.278 7.30799C111.67 6.77999 110.926 6.51599 110.046 6.51599C109.214 6.51599 108.51 6.77199 107.934 7.28399C107.374 7.77999 107.03 8.47599 106.902 9.37199H113.214Z" fill="black"/>
</svg>
